# File created by Blade
# Date/Time:  Tue Jan 27 18:55:50 2015
# Frame Rate: 120.000 fps
#------------------------------------------------------
:FULLY-SPECIFIED
:DEGREES
2199
root -1.228235 32.015294 -5.058214 4.104473 -4.677663 -13.426409
Spine 4.023106 -10.850820 7.827076
Head 23.208919 9.613501 11.524758
LeftShoulder -15.384767 15.387509 13.048521
LeftArm 9.413247 -21.083106 -74.492820
LeftForeArm 0.423815 -0.000000 100.486849
LeftHand -13.288617 -0.000000 21.759101
LeftHandThumb1 -26.253704 0.000000 33.147579
RightShoulder -14.950163 -5.698662 -6.880442
RightArm 2.539686 -11.672870 75.187498
RightForeArm -37.325665 0.000000 47.789466
RightHand -23.368276 -0.000000 -0.107769
RightHandThumb1 -24.326973 -0.000000 -32.862282
LeftUpLeg -9.150082 8.564286 3.422139
LeftLeg 22.171739 -0.000000 -0.000000
LeftFoot -33.191758 26.879029 -22.018524
LeftToeBase 8.682163 -0.000000 -0.000000
RightUpLeg -44.802247 9.578574 -15.903953
RightLeg 118.097185 -0.000000 -0.000000
RightFoot 4.799426 4.760368 25.786645
RightToeBase 15.072394 -0.000000 -0.000000
2200
root -1.220100 32.014011 -5.044878 4.073462 -4.566416 -13.371863
Spine 3.983924 -10.861191 7.866869
Head 23.092669 9.616602 11.428386
LeftShoulder -15.379408 15.393870 13.087225
LeftArm 9.454590 -20.906433 -74.588471
LeftForeArm 0.417421 -0.000000 100.388700
LeftHand -13.259203 -0.000000 21.684308
LeftHandThumb1 -26.253704 0.000000 33.147579
RightShoulder -14.955723 -5.802436 -6.866959
RightArm 2.541756 -11.787391 75.096209
RightForeArm -37.140390 -0.000000 47.599730
RightHand -23.338317 0.000000 0.088976
RightHandThumb1 -24.326973 -0.000000 -32.862282
LeftUpLeg -9.119255 8.719531 3.371119
LeftLeg 22.166743 -0.000000 -0.000000
LeftFoot -33.102619 26.637352 -21.962919
LeftToeBase 8.590201 -0.000000 -0.000000
RightUpLeg -44.812991 9.506548 -15.909585
RightLeg 118.116135 -0.000000 -0.000000
RightFoot 4.508030 4.566617 25.626662
RightToeBase 15.778634 -0.000000 -0.000000
2201
root -1.207323 32.013132 -5.032346 4.052733 -4.448027 -13.308755
Spine 3.932014 -10.897646 7.917746
Head 22.986894 9.641071 11.311354
LeftShoulder -15.367514 15.438819 13.105631
LeftArm 9.503933 -20.798318 -74.723461
LeftForeArm 0.425112 -0.000000 100.294345
LeftHand -13.237074 0.000000 21.620491
LeftHandThumb1 -26.253704 0.000000 33.147579
RightShoulder -14.964346 -5.651631 -6.928660
RightArm 2.369512 -12.026998 75.047484
RightForeArm -37.138581 -0.000000 47.367677
RightHand -23.267012 -0.000000 0.024411
RightHandThumb1 -24.326973 -0.000000 -32.862282
LeftUpLeg -9.097969 8.803839 3.303748
LeftLeg 22.156641 -0.000000 -0.000000
LeftFoot -33.040356 26.432653 -21.953335
LeftToeBase 8.586948 -0.000000 -0.000000
RightUpLeg -44.813204 9.351057 -15.941619
RightLeg 118.053830 -0.000000 -0.000000
RightFoot 4.125199 4.321680 25.058779
RightToeBase 15.656023 -0.000000 -0.000000
2202
root -1.191370 32.011471 -5.021295 4.045822 -4.324565 -13.241653
Spine 3.886516 -10.940093 7.968184
Head 22.816547 9.640852 11.179094
LeftShoulder -15.347581 15.437747 13.147548
LeftArm 9.484515 -20.725500 -74.867579
LeftForeArm 0.433049 0.000000 100.220172
LeftHand -13.203768 0.000000 21.592561
LeftHandThumb1 -26.253704 0.000000 33.147579
RightShoulder -14.967073 -5.601725 -6.936220
RightArm 2.359066 -12.119307 74.927376
RightForeArm -36.830960 -0.000000 47.236630
RightHand -23.241505 -0.000000 0.555840
RightHandThumb1 -24.326973 -0.000000 -32.862282
LeftUpLeg -9.116642 8.924020 3.222023
LeftLeg 22.188119 -0.000000 -0.000000
LeftFoot -32.981901 26.195341 -21.977368
LeftToeBase 8.508280 -0.000000 -0.000000
RightUpLeg -44.811171 9.043475 -15.958257
RightLeg 117.914552 -0.000000 -0.000000
RightFoot 3.631676 3.906940 23.913149
RightToeBase 14.831026 -0.000000 -0.000000
2203
root -1.177501 32.009409 -5.016012 4.059277 -4.176337 -13.180175
Spine 3.844905 -10.985536 8.009363
Head 22.597035 9.614960 11.092495
LeftShoulder -15.319374 15.425734 13.226776
LeftArm 9.465165 -20.679620 -75.039698
LeftForeArm 0.438700 0.000000 100.153383
LeftHand -13.198237 0.000000 21.535825
LeftHandThumb1 -26.253704 0.000000 33.147579
RightShoulder -14.951857 -5.596003 -6.898525
RightArm 2.421949 -12.222155 74.783086
RightForeArm -36.511470 -0.000000 47.130536
RightHand -23.013857 0.000000 0.809097
RightHandThumb1 -24.326973 -0.000000 -32.862282
LeftUpLeg -9.152633 8.976267 3.149078
LeftLeg 22.188052 -0.000000 -0.000000
LeftFoot -32.930024 25.998650 -21.991615
LeftToeBase 8.483659 -0.000000 -0.000000
RightUpLeg -44.808843 8.597110 -15.952175
RightLeg 117.685281 -0.000000 -0.000000
RightFoot 2.892621 3.308387 22.755576
RightToeBase 14.455499 -0.000000 -0.000000
2204
root -1.157586 32.007675 -5.007406 4.070445 -4.065364 -13.106894
Spine 3.807378 -11.020536 8.057330
Head 22.386868 9.628301 10.979114
LeftShoulder -15.333916 15.470077 13.262981
LeftArm 9.497151 -20.666463 -75.247036
LeftForeArm 0.453038 -0.000000 100.071029
LeftHand -13.176886 0.000000 21.493390
LeftHandThumb1 -26.253704 0.000000 33.147579
RightShoulder -14.894745 -5.513626 -6.897668
RightArm 2.458681 -12.295291 74.649713
RightForeArm -36.312943 -0.000000 47.005430
RightHand -22.879759 -0.000000 0.881047
RightHandThumb1 -24.326973 -0.000000 -32.862282
LeftUpLeg -9.162435 9.067879 3.052151
LeftLeg 22.158116 -0.000000 -0.000000
LeftFoot -32.879276 25.806085 -22.019323
LeftToeBase 8.506087 -0.000000 -0.000000
RightUpLeg -44.792565 8.047568 -15.944012
RightLeg 117.358025 -0.000000 -0.000000
RightFoot 2.025506 2.509419 21.481168
RightToeBase 13.862667 -0.000000 -0.000000
2205
root -1.131095 32.004247 -5.001715 4.096618 -3.979087 -13.020799
Spine 3.766519 -10.985314 8.095143
Head 22.165766 9.592222 10.886723
LeftShoulder -15.285096 15.464298 13.372905
LeftArm 9.457116 -20.681840 -75.509546
LeftForeArm 0.465530 -0.000000 99.988416
LeftHand -13.089970 -0.000000 21.396896
LeftHandThumb1 -26.253704 0.000000 33.147579
RightShoulder -14.838183 -5.399083 -6.874337
RightArm 2.452667 -12.451084 74.470512
RightForeArm -36.377925 -0.000000 46.992991
RightHand -22.918851 -0.000000 0.850021
RightHandThumb1 -24.326973 -0.000000 -32.862282
LeftUpLeg -9.219826 9.325321 2.926590
LeftLeg 22.193585 -0.000000 -0.000000
LeftFoot -32.782708 25.509450 -21.962320
LeftToeBase 8.497963 -0.000000 -0.000000
RightUpLeg -44.805620 7.383576 -15.965514
RightLeg 116.921825 -0.000000 -0.000000
RightFoot 1.025470 1.537004 20.292928
RightToeBase 13.647275 -0.000000 -0.000000
2206
root -1.091638 31.999643 -4.992617 4.114271 -3.903479 -12.853337
Spine 3.731549 -10.993821 8.071590
Head 21.944031 9.610369 10.796650
LeftShoulder -15.288353 15.467666 13.427200
LeftArm 9.403308 -20.719832 -75.753118
LeftForeArm 0.496141 0.000000 99.930304
LeftHand -13.085784 -0.000000 21.329285
LeftHandThumb1 -26.253704 0.000000 33.147579
RightShoulder -14.758319 -5.322881 -6.868418
RightArm 2.613768 -12.562016 74.237282
RightForeArm -35.979260 -0.000000 46.942888
RightHand -22.759949 -0.000000 0.853866
RightHandThumb1 -24.326973 -0.000000 -32.862282
LeftUpLeg -9.195801 9.415504 2.703485
LeftLeg 22.084109 -0.000000 -0.000000
LeftFoot -32.712577 25.313574 -22.055314
LeftToeBase 8.474436 -0.000000 -0.000000
RightUpLeg -44.797248 6.567523 -16.085565
RightLeg 116.378808 -0.000000 -0.000000
RightFoot 0.005888 0.409863 19.373015
RightToeBase 13.318452 -0.000000 -0.000000
2207
root -1.051090 31.994311 -4.988246 4.143622 -3.817171 -12.706386
Spine 3.710629 -10.971367 8.077137
Head 21.664392 9.590287 10.673336
LeftShoulder -15.267424 15.450459 13.492430
LeftArm 9.367443 -20.756062 -75.997849
LeftForeArm 0.482908 -0.000000 99.870941
LeftHand -13.044302 0.000000 21.336333
LeftHandThumb1 -26.253704 0.000000 33.147579
RightShoulder -14.657613 -5.212710 -6.882918
RightArm 2.714521 -12.682728 74.057223
RightForeArm -36.231046 -0.000000 46.948399
RightHand -22.767132 -0.000000 0.601550
RightHandThumb1 -24.326973 -0.000000 -32.862282
LeftUpLeg -9.187086 9.399663 2.496609
LeftLeg 21.971603 -0.000000 -0.000000
LeftFoot -32.673535 25.198220 -22.174645
LeftToeBase 8.432320 -0.000000 -0.000000
RightUpLeg -44.803349 5.580644 -16.133116
RightLeg 115.727221 -0.000000 -0.000000
RightFoot -1.005780 -0.932383 18.355367
RightToeBase 12.909635 -0.000000 -0.000000
2208
root -1.012405 31.989542 -4.984352 4.173910 -3.752964 -12.577223
Spine 3.712102 -10.926717 8.104335
Head 21.370776 9.545275 10.538388
LeftShoulder -15.268309 15.455366 13.521174
LeftArm 9.356060 -20.810324 -76.199497
LeftForeArm 0.587910 -0.000000 99.809193
LeftHand -13.075780 -0.000000 21.319817
LeftHandThumb1 -26.253704 0.000000 33.147579
RightShoulder -14.576455 -5.042719 -6.924645
RightArm 2.841106 -12.732075 73.913724
RightForeArm -36.486335 0.000000 46.988229
RightHand -22.896174 -0.000000 0.628789
RightHandThumb1 -24.326973 -0.000000 -32.862282
LeftUpLeg -9.181226 9.443941 2.313213
LeftLeg 21.875716 -0.000000 -0.000000
LeftFoot -32.612500 24.902103 -22.390364
LeftToeBase 8.207846 -0.000000 -0.000000
RightUpLeg -44.844065 4.475684 -16.079726
RightLeg 114.974152 -0.000000 -0.000000
RightFoot -2.058393 -2.525391 17.732592
RightToeBase 13.205318 -0.000000 -0.000000
